<svg width="38" height="16" viewBox="0 0 38 16" fill="#FFFFFF" xmlns="http://www.w3.org/2000/svg">
<g clip-path="url(#clip0_6041_285)">
<path d="M13.8461 0.71875C14.0601 0.239583 14.212 0 14.3018 0H14.3536C14.4571 0 14.6677 0.111111 14.9853 0.333333C15.3029 0.555556 15.4617 0.763889 15.4617 0.958333C15.4617 1.22917 14.5779 3.32639 12.8105 7.25C11.0431 11.1736 10.0282 13.375 9.76581 13.8542C9.51036 14.3264 9.3343 14.6424 9.23765 14.8021C9.14099 14.9618 9.00981 15.1389 8.84411 15.3333C8.54724 15.7014 8.17787 15.8854 7.73601 15.8854C7.5565 15.8854 7.39771 15.9063 7.25963 15.9479C7.12155 15.9965 7.0387 16.0208 7.01108 16.0208C6.79015 16.0208 6.67969 15.9687 6.67969 15.8646C6.67969 15.8437 6.7073 15.7569 6.76254 15.6042C6.82467 15.4583 7.61519 13.7743 9.13408 10.5521C7.51163 10.4896 6.08594 10.441 4.85701 10.4062C3.67642 11.8993 2.60629 13.4618 1.64662 15.0938C1.52925 15.3229 1.41879 15.4826 1.31523 15.5729C1.21166 15.6701 1.07013 15.7188 0.890625 15.7188C0.711119 15.7188 0.517805 15.625 0.310683 15.4375C0.103561 15.2569 0 15.0451 0 14.8021C0 14.1076 0.890625 12.6215 2.67188 10.3438C1.83648 10.3438 1.30487 10.3646 1.07703 10.4062C0.856105 10.4479 0.714571 10.4688 0.652435 10.4688C0.466025 10.4688 0.37282 10.3125 0.37282 10C0.37282 9.68056 0.555778 9.40278 0.921693 9.16667C1.29451 8.92361 1.79161 8.80208 2.41297 8.80208C2.4613 8.80208 2.5476 8.79861 2.67188 8.79167C3.09993 8.77083 3.53834 8.75347 3.9871 8.73958C5.49219 6.96181 7.06632 5.3125 8.70949 3.79167C10.3527 2.27083 11.7749 1.20486 12.9762 0.59375C13.1695 0.496528 13.3214 0.451389 13.4319 0.458333C13.5492 0.458333 13.6873 0.545139 13.8461 0.71875ZM13.1212 2.1875C10.6012 4.11111 8.29869 6.29514 6.21366 8.73958C7.43568 8.76736 8.67151 8.81944 9.92115 8.89583C11.1777 6.23611 12.2444 4 13.1212 2.1875Z" fill="#FFFFFF"/>
<path d="M21.2611 12.0625C21.3923 12.0625 21.4717 12.1632 21.4993 12.3646C21.5269 12.566 21.5407 12.7743 21.5407 12.9896C21.5407 13.2049 21.52 13.3542 21.4786 13.4375C21.2783 13.8264 20.8399 14.3021 20.1633 14.8646C19.4867 15.4201 18.8447 15.6979 18.2371 15.6979C17.8643 15.6979 17.5191 15.5833 17.2015 15.3542C16.8839 15.1319 16.7251 14.7396 16.7251 14.1771C16.7251 13.6146 16.8735 13.0625 17.1704 12.5208C15.4582 14.6806 14.1154 15.7604 13.1419 15.7604C12.7553 15.7604 12.4411 15.6215 12.1995 15.3438C11.9648 15.066 11.8474 14.7812 11.8474 14.4896C11.8474 14.191 11.8888 13.8854 11.9717 13.5729C12.0545 13.2535 12.1408 12.9688 12.2306 12.7188C12.3272 12.4688 12.4653 12.1597 12.6448 11.7917C12.8312 11.4236 12.9693 11.1562 13.059 10.9896C13.1488 10.8229 13.2903 10.5729 13.4836 10.2396C13.6839 9.89931 13.9428 9.44444 14.2604 8.875C14.5848 8.30556 14.8507 7.88542 15.0578 7.61458C15.2718 7.33681 15.4789 7.19792 15.6791 7.19792C15.8794 7.19097 16.0554 7.27083 16.2073 7.4375C16.3592 7.60417 16.4351 7.73958 16.4351 7.84375C16.4351 7.94792 16.2039 8.41667 15.7413 9.25C14.3743 11.7361 13.6908 13.184 13.6908 13.5938C13.6908 13.6979 13.7287 13.75 13.8047 13.75C14.1361 13.75 14.9611 13.0278 16.2798 11.5833C17.5985 10.1389 18.3614 9.21528 18.5685 8.8125C18.7756 8.40278 18.9758 8.05903 19.1692 7.78125C19.3694 7.50347 19.5178 7.33333 19.6145 7.27083C19.9113 7.07639 20.2945 6.97222 20.764 6.95833C20.8399 6.95833 20.8986 6.96181 20.94 6.96875C20.9815 6.97569 21.0298 7.03472 21.085 7.14583C21.1403 7.25694 21.1679 7.34375 21.1679 7.40625C21.1057 7.60069 20.8296 8.11806 20.3394 8.95833C19.8561 9.79861 19.5868 10.2743 19.5316 10.3854C18.7169 12.0799 18.3096 13.184 18.3096 13.6979C18.3096 13.9896 18.4201 14.1354 18.641 14.1354C19.0414 14.0799 19.5247 13.7569 20.0908 13.1667C20.298 12.9514 20.5016 12.7326 20.7019 12.5104C20.909 12.2882 21.0367 12.1597 21.085 12.125C21.1334 12.0833 21.192 12.0625 21.2611 12.0625Z" fill="#FFFFFF"/>
<path d="M24.2644 9.65625C25.8937 7.79514 27.2814 6.86458 28.4275 6.86458C28.7106 6.86458 28.9419 6.95139 29.1214 7.125C29.3078 7.29167 29.401 7.51042 29.401 7.78125C29.401 8.05208 29.2077 8.50694 28.821 9.14583C28.4413 9.77778 28.0892 10.3125 27.7647 10.75C27.5921 10.9722 27.3954 11.0833 27.1744 11.0833C26.9604 11.0833 26.7912 11.0035 26.667 10.8438C26.5496 10.684 26.4909 10.4965 26.4909 10.2812C26.4909 9.80208 26.7464 9.26042 27.2573 8.65625L27.2366 8.63542C27.0087 8.65625 26.4426 9.10764 25.5382 9.98958C24.6406 10.8715 23.8743 11.6632 23.2391 12.3646C22.6108 13.059 21.9273 13.9062 21.1886 14.9062C20.9746 15.2049 20.7916 15.3542 20.6397 15.3542C20.4947 15.3542 20.3014 15.309 20.0598 15.2188C19.8112 15.1215 19.6628 15.0521 19.6145 15.0104C19.5592 14.9688 19.5316 14.8993 19.5316 14.8021C19.5316 14.7049 19.5592 14.5938 19.6145 14.4688C19.6697 14.3368 19.7733 14.1528 19.9251 13.9167C20.0701 13.6806 20.2911 13.2986 20.5879 12.7708C20.8917 12.2431 21.3612 11.4444 21.9964 10.375C22.6315 9.30556 23.0113 8.65972 23.1355 8.4375C23.3979 7.97917 23.6119 7.64583 23.7776 7.4375C24.0883 7.04167 24.613 6.84375 25.3517 6.84375C25.5174 6.84375 25.6003 6.94792 25.6003 7.15625C25.6003 7.48264 25.3 8.09722 24.6993 9L24.2644 9.65625Z" fill="#FFFFFF"/>
<path d="M36.1946 7.41667C36.7193 7.41667 36.9817 7.59722 36.9817 7.95833C36.9817 8.15278 36.9368 8.29514 36.847 8.38542C36.7573 8.47569 36.564 8.77778 36.2671 9.29167C35.9771 9.79861 35.6526 10.4514 35.2936 11.25C34.9415 12.0417 34.7137 12.7188 34.6101 13.2812C34.5894 13.3507 34.579 13.4479 34.579 13.5729C34.579 13.9549 34.6826 14.1458 34.8897 14.1458C35.0968 14.1458 35.3419 14.0486 35.625 13.8542C35.9081 13.6528 36.1601 13.441 36.381 13.2188C36.6019 12.9896 36.816 12.7569 37.0231 12.5208C37.2371 12.2847 37.3648 12.1493 37.4063 12.1146C37.4477 12.0799 37.5098 12.0625 37.5927 12.0625C37.7238 12.0625 37.8032 12.1632 37.8309 12.3646C37.8585 12.566 37.8723 12.7743 37.8723 12.9896C37.8723 13.2049 37.8516 13.3542 37.8101 13.4375C37.6099 13.8333 37.1681 14.309 36.4846 14.8646C35.808 15.4201 35.19 15.6979 34.6308 15.6979C34.0785 15.6979 33.6711 15.5278 33.4088 15.1875C33.1464 14.8472 33.0153 14.4722 33.0153 14.0625C33.0153 13.6458 33.0843 13.2812 33.2224 12.9688C32.6493 13.7188 31.99 14.3542 31.2444 14.875C30.5056 15.3958 29.9015 15.6562 29.4321 15.6562C28.9626 15.6562 28.5794 15.5139 28.2825 15.2292C27.9028 14.875 27.7129 14.3854 27.7129 13.7604C27.7129 13.1285 27.851 12.4965 28.1272 11.8646C28.4102 11.2257 28.7796 10.6458 29.2353 10.125C29.691 9.59722 30.1915 9.11806 30.7369 8.6875C31.883 7.78472 32.9393 7.33333 33.9059 7.33333C34.2787 7.33333 34.5825 7.39583 34.8172 7.52083C35.052 7.64583 35.2004 7.80208 35.2625 7.98958C35.4282 7.73958 35.5663 7.58333 35.6768 7.52083C35.7942 7.45139 35.9668 7.41667 36.1946 7.41667ZM34.8172 8.57292C33.6366 8.57292 32.4146 9.23264 31.1512 10.5521C30.7024 11.0243 30.2882 11.5903 29.9084 12.25C29.5356 12.9097 29.3492 13.3611 29.3492 13.6042C29.3492 13.8472 29.4182 13.9688 29.5563 13.9688C29.7496 13.9688 30.2882 13.5868 31.1719 12.8229C32.0556 12.0521 32.6424 11.4861 32.9324 11.125C33.25 10.7222 33.8783 9.87153 34.8172 8.57292Z" fill="#FFFFFF"/>
</g>
<defs>
<clipPath id="clip0_6041_285">
<rect width="38" height="16" fill="#FFFFFF"/>
</clipPath>
</defs>
</svg>
