<svg width="1920" height="1080" viewBox="0 0 1920 1080" fill="none" xmlns="http://www.w3.org/2000/svg">
<g clip-path="url(#clip0_6136_16924)">
<rect width="1920" height="1080" fill="#F3F3F3"/>
<rect width="1920" height="1080" fill="url(#paint0_linear_6136_16924)"/>
<path opacity="0.2" fill-rule="evenodd" clip-rule="evenodd" d="M702.634 1075H1011.56C961.122 993.671 932 897.737 932 795C932 501.185 1170.18 263 1464 263C1657.52 263 1826.91 366.328 1920 520.823V124.244C1832.45 64.612 1732.63 21.6712 1625.1 0H1302.9C932.174 74.716 653 402.256 653 795C653 893.411 670.528 987.729 702.634 1075ZM1920 1069.18C1918.83 1071.13 1917.64 1073.07 1916.44 1075H1920V1069.18Z" fill="url(#paint1_linear_6136_16924)"/>
<rect opacity="0.1" x="1920" width="1075" height="1267" transform="rotate(90 1920 0)" fill="url(#paint2_linear_6136_16924)"/>
<g filter="url(#filter0_d_6136_16924)">
<path fill-rule="evenodd" clip-rule="evenodd" d="M1050 171C1050 618.903 686.903 982 239 982C155.814 982 75.5529 969.476 0 946.21V646.422C71.8594 682.617 153.049 703 239 703C532.815 703 771 464.815 771 171C771 111.18 761.127 53.667 742.922 0H1031.94C1043.77 55.1284 1050 112.337 1050 171Z" fill="url(#paint3_linear_6136_16924)"/>
</g>
</g>
<defs>
<filter id="filter0_d_6136_16924" x="-66" y="-27" width="1190" height="1122" filterUnits="userSpaceOnUse" color-interpolation-filters="sRGB">
<feFlood flood-opacity="0" result="BackgroundImageFix"/>
<feColorMatrix in="SourceAlpha" type="matrix" values="0 0 0 0 0 0 0 0 0 0 0 0 0 0 0 0 0 0 127 0" result="hardAlpha"/>
<feOffset dx="4" dy="43"/>
<feGaussianBlur stdDeviation="35"/>
<feComposite in2="hardAlpha" operator="out"/>
<feColorMatrix type="matrix" values="0 0 0 0 0 0 0 0 0 0.406729 0 0 0 0 0.691081 0 0 0 0.2 0"/>
<feBlend mode="normal" in2="BackgroundImageFix" result="effect1_dropShadow_6136_16924"/>
<feBlend mode="normal" in="SourceGraphic" in2="effect1_dropShadow_6136_16924" result="shape"/>
</filter>
<linearGradient id="paint0_linear_6136_16924" x1="1.51992e-05" y1="1080" x2="1924.01" y2="1072.82" gradientUnits="userSpaceOnUse">
<stop stop-color="#003B92"/>
<stop offset="1" stop-color="#008AD8"/>
</linearGradient>
<linearGradient id="paint1_linear_6136_16924" x1="1920" y1="263.5" x2="706" y2="1075" gradientUnits="userSpaceOnUse">
<stop stop-color="#87CEFF"/>
<stop offset="1" stop-color="#175C9C"/>
</linearGradient>
<linearGradient id="paint2_linear_6136_16924" x1="2457.5" y1="0" x2="2457.5" y2="1267" gradientUnits="userSpaceOnUse">
<stop stop-color="#016EBF"/>
<stop offset="1" stop-color="#0155A9"/>
</linearGradient>
<linearGradient id="paint3_linear_6136_16924" x1="1050" y1="190" x2="-20" y2="906.5" gradientUnits="userSpaceOnUse">
<stop stop-color="#0D73C6"/>
<stop offset="1" stop-color="#134795"/>
</linearGradient>
<clipPath id="clip0_6136_16924">
<rect width="1920" height="1080" fill="white"/>
</clipPath>
</defs>
</svg>
