<svg width="124" height="42" viewBox="0 0 124 42" fill="none" xmlns="http://www.w3.org/2000/svg">
<g clip-path="url(#clip0_6137_17840)">
<path fill-rule="evenodd" clip-rule="evenodd" d="M95.7855 6.95508C93.9061 6.95508 92.1988 7.53059 90.9782 8.57557C89.4813 9.83308 88.7126 11.8408 88.693 14.5439H85.9541V15.3824V16.8987V17.0985H88.6926V32.7647H92.3673V17.0985H97.0792V16.8987V15.3824V14.5439L92.3673 14.544C92.3673 11.2522 93.5776 9.65199 96.0674 9.65199C96.916 9.65199 97.664 9.78146 98.2907 10.0368L98.3861 10.0758L98.9043 7.48321L98.835 7.458C98.4191 7.30678 97.2893 6.95508 95.7855 6.95508ZM103.489 11.5432H99.9629V7.65674H103.489V11.5432ZM103.482 32.7647L99.9629 32.7709V14.5234H103.482V32.7647ZM123.171 18.0665C122.742 17.1124 122.124 16.3113 121.335 15.6853C119.649 14.348 117.665 14.1484 116.632 14.1484C115.074 14.1484 113.592 14.5161 112.346 15.2117C111.533 15.6655 110.824 16.2585 110.29 16.9234V14.558H109.894L106.453 14.5582C106.453 15.0949 106.446 15.725 106.439 16.4335V16.4343V16.4353V16.4364V16.4371V16.438V16.439C106.429 17.3498 106.418 18.3899 106.418 19.5273V32.7646H110.007V21.8364C110.007 21.2679 110.097 20.724 110.252 20.3439L110.254 20.3391C110.82 18.7008 112.833 17.0476 115.414 17.0476C119.43 17.0476 120.374 20.328 120.374 22.2833V32.7646H123.906V21.9109C123.906 20.4444 123.659 19.151 123.171 18.0665ZM73.9268 30.1557C76.1426 30.1756 77.8734 29.2662 78.9655 27.314C80.0294 25.4123 80.1835 22.3582 79.3543 20.3355C78.3998 18.0069 76.64 16.7443 74.0969 16.7066C72.0952 16.6769 70.4743 17.446 69.3152 19.1197C68.4205 20.4117 68.0697 21.8684 68.05 23.2594C68.0533 24.2281 68.1543 25.0213 68.3888 25.7944C69.1501 28.3044 71.0501 30.1299 73.9268 30.1557ZM83.5349 16.7542L83.535 17.451C83.535 18.7602 83.5346 20.0694 83.5341 21.3786C83.533 24.6634 83.5319 27.9481 83.5378 31.2328C83.541 33.0338 83.1293 34.7012 82.0295 36.1502C80.8745 37.6718 79.3099 38.5873 77.5191 39.1427C75.7733 39.6841 73.9849 39.8079 72.1711 39.664C70.3275 39.5178 68.5708 39.0596 66.9121 38.2257C66.695 38.1166 66.6498 38.0123 66.6933 37.7736C66.8445 36.9441 66.9688 36.1094 67.0896 35.2746C67.1216 35.053 67.1689 35.0003 67.3884 35.1126C68.7877 35.829 70.2563 36.3515 71.8165 36.557C73.8931 36.8307 75.9187 36.6928 77.7574 35.552C79.2094 34.6511 80.028 33.3683 79.9762 31.5981C79.9658 31.2416 79.9685 30.8846 79.9713 30.5227C79.9725 30.3555 79.9738 30.1873 79.9738 30.0175C79.8565 30.0172 79.8132 30.0814 79.7734 30.1405C79.7674 30.1494 79.7615 30.1582 79.7554 30.1667C79.7496 30.1746 79.7438 30.1823 79.7375 30.1894C77.9335 32.2528 75.6403 33.1463 72.9493 32.9506C69.9759 32.7343 67.6324 31.3571 65.9914 28.8387C65.1607 27.5639 64.7339 26.1383 64.5827 24.6235C64.42 22.993 64.5436 21.3908 65.1096 19.8505C66.2355 16.7861 68.4075 14.8564 71.5547 14.1116C74.0082 13.5309 76.3234 13.9357 78.4083 15.4238C78.8925 15.7694 79.3162 16.1835 79.707 16.6326C79.7215 16.6493 79.7346 16.6677 79.7481 16.6866L79.7482 16.6867C79.7948 16.7524 79.8457 16.8239 79.9738 16.8487V15.9242C79.9738 15.7955 79.9742 15.6668 79.9746 15.5382C79.9756 15.2074 79.9766 14.8767 79.971 14.546C79.9686 14.3994 80.0084 14.3478 80.1619 14.3487C81.2203 14.3549 82.2788 14.3576 83.3371 14.3471C83.5382 14.3451 83.5374 14.4453 83.5364 14.577L83.5362 14.6007C83.5345 15.3185 83.5347 16.0364 83.5349 16.7542ZM58.4176 27.3095C57.3271 29.2631 55.5974 30.1743 53.3817 30.1558C50.5088 30.1316 48.6072 28.317 47.8398 25.7992C47.6043 25.0267 47.5026 24.2332 47.5005 23.2231C47.5183 21.8733 47.8688 20.4162 48.7624 19.1238C49.9278 17.4385 51.559 16.6705 53.5731 16.7073C56.1033 16.7536 57.8518 18.0159 58.8024 20.3309C59.7736 22.6962 59.671 25.0639 58.4176 27.3095ZM62.9729 7.51367L59.4341 7.5214C59.433 7.56042 59.4317 7.59943 59.4303 7.63845C59.4272 7.72456 59.4242 7.81067 59.4242 7.89678C59.4237 10.1854 59.4238 12.4739 59.4238 14.7625L59.4238 16.5113V16.8407C59.2965 16.8297 59.2478 16.7586 59.203 16.6931C59.1898 16.6738 59.1769 16.655 59.1624 16.6383C58.7717 16.1889 58.3475 15.7754 57.8648 15.4277C56.0127 14.0935 53.9436 13.6471 51.7112 13.9751C49.4048 14.3139 47.4962 15.3927 46.013 17.2135C44.5742 18.9797 44.058 21.0687 43.9226 23.2882C43.9066 23.5525 43.935 23.8161 43.9635 24.0805C43.9692 24.1341 43.975 24.1877 43.9804 24.2414C44.095 25.3763 44.2888 26.4935 44.7606 27.5351C46.2476 30.8173 48.8052 32.638 52.3601 32.943C55.0854 33.1768 57.4062 32.2514 59.2223 30.1473C59.228 30.1407 59.2333 30.1335 59.2385 30.1258C59.2429 30.1194 59.2472 30.1127 59.2515 30.106C59.2858 30.0524 59.3229 29.9945 59.4238 30.0342C59.4238 30.2345 59.4243 30.4352 59.4248 30.636C59.4262 31.1725 59.4276 31.7105 59.4192 32.2483C59.4161 32.4485 59.4634 32.512 59.6727 32.5095C60.6585 32.4976 61.6448 32.489 62.6301 32.5131C62.9428 32.5207 62.992 32.4243 62.9917 32.1346C62.9848 25.4954 62.9847 18.8561 62.9846 12.2168V12.2056L62.9845 7.8572C62.9845 7.77951 62.981 7.70183 62.9775 7.62413C62.9759 7.58731 62.9742 7.55049 62.9729 7.51367Z" fill="white"/>
<path d="M5.98759 6.804C-1.80836 14.6592 -1.80836 27.3949 5.98759 35.2501C13.7836 43.1052 26.4233 43.1052 34.2194 35.2501C42.0153 27.3949 42.0153 14.6592 34.2194 6.804C30.3213 2.8764 25.2124 0.912598 20.1035 0.912598C14.9945 0.912598 9.88559 2.8764 5.98759 6.804Z" fill="url(#paint0_linear_6137_17840)"/>
<mask id="mask0_6137_17840" style="mask-type:luminance" maskUnits="userSpaceOnUse" x="0" y="0" width="41" height="42">
<path d="M0.140625 21.0235C0.140625 32.1305 9.07828 41.1345 20.1034 41.1345C31.1286 41.1345 40.0663 32.1305 40.0663 21.0235C40.0663 9.91658 31.1286 0.912598 20.1034 0.912598C9.07828 0.912598 0.140625 9.91658 0.140625 21.0235Z" fill="white"/>
</mask>
<g mask="url(#mask0_6137_17840)">
<path d="M25.0381 15.7153C25.4151 16.067 26.0037 16.044 26.3527 15.6642C26.7018 15.2843 26.679 14.6912 26.302 14.3395C24.6058 12.7574 22.398 11.8862 20.0853 11.8862C17.6403 11.8862 15.3416 12.8455 13.6127 14.5876C11.8838 16.3296 10.9316 18.6457 10.9316 21.1093C10.9316 21.627 11.3482 22.0467 11.8619 22.0467C12.3758 22.0467 12.7922 21.627 12.7922 21.1093C12.7922 17.0574 16.0639 13.7609 20.0853 13.7609C21.9279 13.7609 23.6868 14.455 25.0381 15.7153Z" fill="white"/>
<path d="M8.49342 21.1359C8.49342 14.6225 13.7526 9.32347 20.2169 9.32347C22.9048 9.32347 25.4264 10.2053 27.5095 11.8736C29.5648 13.5966 30.7434 16.1272 30.7434 18.8185C30.7434 23.0248 27.9107 26.6382 23.8548 27.6056C23.3548 27.7249 23.0454 28.2299 23.1638 28.7337C23.2651 29.1649 23.6469 29.4554 24.0683 29.4554C24.1392 29.4554 24.2113 29.4471 24.2834 29.4299C26.6142 28.874 28.7271 27.5248 30.2326 25.631C30.985 24.6846 31.5711 23.6282 31.9746 22.4911C32.3923 21.3144 32.6041 20.0788 32.6041 18.8185C32.6041 15.5633 31.1767 12.5032 28.688 10.4228C28.6658 10.4042 28.6435 10.3857 28.6212 10.3674L28.6203 10.3685C27.4596 9.4474 26.1657 8.72894 24.773 8.2324C23.3145 7.7124 21.7816 7.44873 20.2169 7.44873C18.3835 7.44873 16.6044 7.81076 14.9291 8.52474C13.3114 9.21415 11.8587 10.2009 10.6115 11.4576C9.36424 12.7143 8.38493 14.178 7.70072 15.808C6.99211 17.496 6.63281 19.2886 6.63281 21.1359C6.63281 22.2271 6.76079 23.3135 7.01321 24.3649C7.134 24.8681 7.63677 25.1774 8.13616 25.0556C8.63554 24.9339 8.94246 24.4273 8.82166 23.9241C8.60386 23.0169 8.49342 22.0788 8.49342 21.1359Z" fill="white"/>
<path d="M21.4317 28.5177C21.4317 28 21.0152 27.5803 20.5014 27.5803H17.1419V20.7823C17.1419 19.2343 18.6596 17.9749 20.5252 17.9749C22.1982 17.9749 23.638 19.0108 23.8744 20.3845C23.9622 20.8946 24.4437 21.2364 24.9499 21.1479C25.4562 21.0595 25.7955 20.5743 25.7078 20.0642C25.5159 18.9495 24.8777 17.9338 23.9107 17.2042C22.967 16.4923 21.7647 16.1001 20.5252 16.1001C19.1502 16.1001 17.8513 16.5704 16.8678 17.4242C15.8447 18.3124 15.2812 19.505 15.2812 20.7823V41.6438C15.2812 42.1615 15.6978 42.5812 16.2116 42.5812C16.7253 42.5812 17.1419 42.1615 17.1419 41.6438V29.455H20.5014C21.0152 29.455 21.4317 29.0354 21.4317 28.5177Z" fill="white"/>
<path d="M35.1402 11.9911C34.1636 9.99532 32.7341 8.20451 31.0047 6.80974L31.0013 6.80703C30.9918 6.79933 30.982 6.79151 30.9725 6.78381C29.4697 5.6545 27.8063 4.77746 26.0296 4.1755C24.1948 3.55395 22.2719 3.23877 20.3145 3.23877C17.9076 3.23877 15.5722 3.71397 13.3732 4.65114C11.2496 5.55615 9.34269 6.85153 7.70532 8.50133C6.06796 10.1511 4.78233 12.0725 3.88415 14.2122C2.95404 16.4279 2.48242 18.7811 2.48242 21.2063C2.48242 22.6255 2.64736 24.0387 2.97259 25.4067C3.28878 26.7366 3.75811 28.0314 4.36759 29.2551C4.59805 29.7178 5.15714 29.9047 5.61634 29.6724C6.07554 29.4402 6.261 28.8769 6.03054 28.4142C4.9108 26.166 4.34303 23.7409 4.34303 21.2063C4.34303 12.3327 11.5078 5.11351 20.3145 5.11351C23.7943 5.11351 27.093 6.20979 29.8552 8.28397C33.0197 10.842 34.8335 14.647 34.8335 18.7322C34.8335 26.1143 28.873 32.1201 21.5465 32.1201C21.0327 32.1201 20.6162 32.5398 20.6162 33.0575C20.6162 33.5752 21.0327 33.9948 21.5465 33.9948C23.591 33.9948 25.5748 33.5912 27.4429 32.795C29.2468 32.0263 30.8667 30.9259 32.2575 29.5245C33.6483 28.1231 34.7404 26.4909 35.5034 24.6734C36.2935 22.7911 36.6941 20.7922 36.6941 18.7322C36.6941 16.3664 36.1713 14.0984 35.1402 11.9911Z" fill="white"/>
</g>
</g>
<defs>
<linearGradient id="paint0_linear_6137_17840" x1="9.4342" y1="30.0476" x2="32.0587" y2="11.2064" gradientUnits="userSpaceOnUse">
<stop stop-color="#01E3C7"/>
<stop offset="0.262671" stop-color="#01E3C7"/>
<stop offset="0.998608" stop-color="#0067FA"/>
<stop offset="1" stop-color="#0067FA"/>
</linearGradient>
<clipPath id="clip0_6137_17840">
<rect width="124" height="42" fill="white"/>
</clipPath>
</defs>
</svg>
